<mxfile host="app.diagrams.net" agent="Mozilla/5.0 (Windows NT 10.0; Win64; x64) AppleWebKit/537.36 (KHTML, like Gecko) Chrome/128.0.0.0 Safari/537.36 Edg/128.0.0.0" version="24.7.12">
  <diagram name="Página-1" id="O5VdGIzWX3460K3nhzAZ">
    <mxGraphModel dx="784" dy="1944" grid="1" gridSize="10" guides="1" tooltips="1" connect="1" arrows="1" fold="1" page="1" pageScale="1" pageWidth="827" pageHeight="1169" math="0" shadow="0">
      <root>
        <mxCell id="0" />
        <mxCell id="1" parent="0" />
        <mxCell id="XiJv4KpP4LlU0lCZhmlO-52" value="" style="rounded=0;whiteSpace=wrap;html=1;" vertex="1" parent="1">
          <mxGeometry x="260" y="130" width="450" height="130" as="geometry" />
        </mxCell>
        <mxCell id="XiJv4KpP4LlU0lCZhmlO-46" value="" style="rounded=0;whiteSpace=wrap;html=1;" vertex="1" parent="1">
          <mxGeometry x="270" y="320" width="430" height="230" as="geometry" />
        </mxCell>
        <mxCell id="XiJv4KpP4LlU0lCZhmlO-41" value="" style="rounded=0;whiteSpace=wrap;html=1;" vertex="1" parent="1">
          <mxGeometry x="250" y="650" width="460" height="420" as="geometry" />
        </mxCell>
        <mxCell id="XiJv4KpP4LlU0lCZhmlO-3" value="" style="edgeStyle=orthogonalEdgeStyle;rounded=0;orthogonalLoop=1;jettySize=auto;html=1;" edge="1" parent="1" source="XiJv4KpP4LlU0lCZhmlO-1" target="XiJv4KpP4LlU0lCZhmlO-2">
          <mxGeometry relative="1" as="geometry" />
        </mxCell>
        <mxCell id="XiJv4KpP4LlU0lCZhmlO-1" value="Usuario" style="rounded=0;whiteSpace=wrap;html=1;" vertex="1" parent="1">
          <mxGeometry x="330" y="970" width="120" height="60" as="geometry" />
        </mxCell>
        <mxCell id="XiJv4KpP4LlU0lCZhmlO-36" value="" style="edgeStyle=orthogonalEdgeStyle;rounded=0;orthogonalLoop=1;jettySize=auto;html=1;" edge="1" parent="1" source="XiJv4KpP4LlU0lCZhmlO-2" target="XiJv4KpP4LlU0lCZhmlO-4">
          <mxGeometry relative="1" as="geometry" />
        </mxCell>
        <mxCell id="XiJv4KpP4LlU0lCZhmlO-2" value="Load Balancer" style="rounded=0;whiteSpace=wrap;html=1;" vertex="1" parent="1">
          <mxGeometry x="330" y="820" width="120" height="60" as="geometry" />
        </mxCell>
        <mxCell id="XiJv4KpP4LlU0lCZhmlO-37" value="" style="edgeStyle=orthogonalEdgeStyle;rounded=0;orthogonalLoop=1;jettySize=auto;html=1;" edge="1" parent="1" source="XiJv4KpP4LlU0lCZhmlO-4" target="XiJv4KpP4LlU0lCZhmlO-5">
          <mxGeometry relative="1" as="geometry" />
        </mxCell>
        <mxCell id="XiJv4KpP4LlU0lCZhmlO-4" value="Site&lt;div&gt;&lt;br&gt;&lt;/div&gt;" style="rounded=0;whiteSpace=wrap;html=1;" vertex="1" parent="1">
          <mxGeometry x="330" y="690" width="120" height="60" as="geometry" />
        </mxCell>
        <mxCell id="XiJv4KpP4LlU0lCZhmlO-5" value="Autenticação" style="rounded=0;whiteSpace=wrap;html=1;" vertex="1" parent="1">
          <mxGeometry x="540" y="690" width="120" height="60" as="geometry" />
        </mxCell>
        <mxCell id="XiJv4KpP4LlU0lCZhmlO-40" value="" style="edgeStyle=orthogonalEdgeStyle;rounded=0;orthogonalLoop=1;jettySize=auto;html=1;" edge="1" parent="1" source="XiJv4KpP4LlU0lCZhmlO-10" target="XiJv4KpP4LlU0lCZhmlO-12">
          <mxGeometry relative="1" as="geometry">
            <Array as="points">
              <mxPoint x="480" y="460" />
              <mxPoint x="480" y="460" />
            </Array>
          </mxGeometry>
        </mxCell>
        <mxCell id="XiJv4KpP4LlU0lCZhmlO-10" value="Redis" style="rounded=0;whiteSpace=wrap;html=1;" vertex="1" parent="1">
          <mxGeometry x="330" y="410" width="120" height="60" as="geometry" />
        </mxCell>
        <mxCell id="XiJv4KpP4LlU0lCZhmlO-45" value="" style="edgeStyle=orthogonalEdgeStyle;rounded=0;orthogonalLoop=1;jettySize=auto;html=1;" edge="1" parent="1" source="XiJv4KpP4LlU0lCZhmlO-12" target="XiJv4KpP4LlU0lCZhmlO-10">
          <mxGeometry relative="1" as="geometry" />
        </mxCell>
        <mxCell id="XiJv4KpP4LlU0lCZhmlO-12" value="Banco de dados" style="rounded=0;whiteSpace=wrap;html=1;" vertex="1" parent="1">
          <mxGeometry x="520" y="410" width="120" height="60" as="geometry" />
        </mxCell>
        <mxCell id="XiJv4KpP4LlU0lCZhmlO-21" value="Mecanismo Look (Garante o ingresso)" style="rounded=0;whiteSpace=wrap;html=1;" vertex="1" parent="1">
          <mxGeometry x="330" y="170" width="120" height="60" as="geometry" />
        </mxCell>
        <mxCell id="XiJv4KpP4LlU0lCZhmlO-33" value="Pagamento" style="rounded=0;whiteSpace=wrap;html=1;" vertex="1" parent="1">
          <mxGeometry x="330" y="-50" width="120" height="60" as="geometry" />
        </mxCell>
        <mxCell id="XiJv4KpP4LlU0lCZhmlO-42" value="Autenticação&lt;div&gt;&lt;br&gt;&lt;/div&gt;" style="text;html=1;align=center;verticalAlign=middle;resizable=0;points=[];autosize=1;strokeColor=none;fillColor=none;" vertex="1" parent="1">
          <mxGeometry x="150" y="730" width="90" height="40" as="geometry" />
        </mxCell>
        <mxCell id="XiJv4KpP4LlU0lCZhmlO-43" value="" style="endArrow=classic;html=1;rounded=0;exitX=0.5;exitY=0;exitDx=0;exitDy=0;entryX=0.5;entryY=1;entryDx=0;entryDy=0;" edge="1" parent="1" source="XiJv4KpP4LlU0lCZhmlO-4" target="XiJv4KpP4LlU0lCZhmlO-10">
          <mxGeometry width="50" height="50" relative="1" as="geometry">
            <mxPoint x="460" y="550" as="sourcePoint" />
            <mxPoint x="510" y="500" as="targetPoint" />
          </mxGeometry>
        </mxCell>
        <mxCell id="XiJv4KpP4LlU0lCZhmlO-47" value="Disponibilidade de ingresso&lt;div&gt;&lt;br&gt;&lt;/div&gt;" style="text;html=1;align=center;verticalAlign=middle;resizable=0;points=[];autosize=1;strokeColor=none;fillColor=none;" vertex="1" parent="1">
          <mxGeometry x="110" y="460" width="170" height="40" as="geometry" />
        </mxCell>
        <mxCell id="XiJv4KpP4LlU0lCZhmlO-48" value="" style="endArrow=classic;html=1;rounded=0;entryX=0.5;entryY=1;entryDx=0;entryDy=0;exitX=0.279;exitY=0;exitDx=0;exitDy=0;exitPerimeter=0;" edge="1" parent="1" source="XiJv4KpP4LlU0lCZhmlO-46" target="XiJv4KpP4LlU0lCZhmlO-21">
          <mxGeometry width="50" height="50" relative="1" as="geometry">
            <mxPoint x="300" y="350" as="sourcePoint" />
            <mxPoint x="350" y="300" as="targetPoint" />
          </mxGeometry>
        </mxCell>
        <mxCell id="XiJv4KpP4LlU0lCZhmlO-49" value="" style="endArrow=none;html=1;rounded=0;exitX=1;exitY=0.5;exitDx=0;exitDy=0;" edge="1" parent="1" source="XiJv4KpP4LlU0lCZhmlO-21">
          <mxGeometry width="50" height="50" relative="1" as="geometry">
            <mxPoint x="300" y="350" as="sourcePoint" />
            <mxPoint x="590" y="200" as="targetPoint" />
          </mxGeometry>
        </mxCell>
        <mxCell id="XiJv4KpP4LlU0lCZhmlO-50" value="" style="endArrow=classic;html=1;rounded=0;entryX=0.5;entryY=0;entryDx=0;entryDy=0;" edge="1" parent="1" target="XiJv4KpP4LlU0lCZhmlO-12">
          <mxGeometry width="50" height="50" relative="1" as="geometry">
            <mxPoint x="580" y="200" as="sourcePoint" />
            <mxPoint x="350" y="300" as="targetPoint" />
          </mxGeometry>
        </mxCell>
        <mxCell id="XiJv4KpP4LlU0lCZhmlO-51" value="Reserva ou confirma&amp;nbsp;&lt;div&gt;o ingresso&lt;div&gt;&lt;br&gt;&lt;/div&gt;&lt;/div&gt;" style="text;html=1;align=center;verticalAlign=middle;resizable=0;points=[];autosize=1;strokeColor=none;fillColor=none;" vertex="1" parent="1">
          <mxGeometry x="460" y="150" width="140" height="60" as="geometry" />
        </mxCell>
        <mxCell id="XiJv4KpP4LlU0lCZhmlO-53" value="&lt;div&gt;Reserva ingresso&lt;/div&gt;" style="text;html=1;align=center;verticalAlign=middle;resizable=0;points=[];autosize=1;strokeColor=none;fillColor=none;" vertex="1" parent="1">
          <mxGeometry x="130" y="173" width="120" height="30" as="geometry" />
        </mxCell>
        <mxCell id="XiJv4KpP4LlU0lCZhmlO-54" value="" style="endArrow=classic;html=1;rounded=0;exitX=0.5;exitY=0;exitDx=0;exitDy=0;entryX=0.5;entryY=1;entryDx=0;entryDy=0;" edge="1" parent="1">
          <mxGeometry width="50" height="50" relative="1" as="geometry">
            <mxPoint x="370" y="170" as="sourcePoint" />
            <mxPoint x="370" y="10" as="targetPoint" />
          </mxGeometry>
        </mxCell>
        <mxCell id="XiJv4KpP4LlU0lCZhmlO-55" value="" style="endArrow=classic;html=1;rounded=0;exitX=0.675;exitY=1.033;exitDx=0;exitDy=0;exitPerimeter=0;entryX=0.675;entryY=-0.017;entryDx=0;entryDy=0;entryPerimeter=0;" edge="1" parent="1" source="XiJv4KpP4LlU0lCZhmlO-33" target="XiJv4KpP4LlU0lCZhmlO-21">
          <mxGeometry width="50" height="50" relative="1" as="geometry">
            <mxPoint x="300" y="150" as="sourcePoint" />
            <mxPoint x="411" y="160" as="targetPoint" />
          </mxGeometry>
        </mxCell>
        <mxCell id="XiJv4KpP4LlU0lCZhmlO-56" value="Confirma e&amp;nbsp;&lt;div&gt;atualiza&lt;/div&gt;&lt;div&gt;&lt;br&gt;&lt;/div&gt;" style="text;html=1;align=center;verticalAlign=middle;resizable=0;points=[];autosize=1;strokeColor=none;fillColor=none;" vertex="1" parent="1">
          <mxGeometry x="405" y="33" width="90" height="60" as="geometry" />
        </mxCell>
        <mxCell id="XiJv4KpP4LlU0lCZhmlO-57" value="" style="endArrow=none;html=1;rounded=0;entryX=0;entryY=0.5;entryDx=0;entryDy=0;" edge="1" parent="1" target="XiJv4KpP4LlU0lCZhmlO-33">
          <mxGeometry width="50" height="50" relative="1" as="geometry">
            <mxPoint x="40" y="-20" as="sourcePoint" />
            <mxPoint x="350" y="100" as="targetPoint" />
          </mxGeometry>
        </mxCell>
        <mxCell id="XiJv4KpP4LlU0lCZhmlO-58" value="" style="endArrow=none;html=1;rounded=0;" edge="1" parent="1">
          <mxGeometry width="50" height="50" relative="1" as="geometry">
            <mxPoint x="40" y="1010" as="sourcePoint" />
            <mxPoint x="40" y="-20" as="targetPoint" />
          </mxGeometry>
        </mxCell>
        <mxCell id="XiJv4KpP4LlU0lCZhmlO-59" value="" style="endArrow=classic;html=1;rounded=0;entryX=0.017;entryY=0.65;entryDx=0;entryDy=0;entryPerimeter=0;" edge="1" parent="1" target="XiJv4KpP4LlU0lCZhmlO-1">
          <mxGeometry width="50" height="50" relative="1" as="geometry">
            <mxPoint x="40" y="1010" as="sourcePoint" />
            <mxPoint x="350" y="1000" as="targetPoint" />
          </mxGeometry>
        </mxCell>
        <mxCell id="XiJv4KpP4LlU0lCZhmlO-60" value="Confirmação de compra&lt;div&gt;&lt;br&gt;&lt;/div&gt;" style="text;html=1;align=center;verticalAlign=middle;resizable=0;points=[];autosize=1;strokeColor=none;fillColor=none;" vertex="1" parent="1">
          <mxGeometry x="70" y="980" width="150" height="40" as="geometry" />
        </mxCell>
      </root>
    </mxGraphModel>
  </diagram>
</mxfile>
